<svg xmlns="http://www.w3.org/2000/svg" viewBox="0 0 104.53 15.98">
  <style>.cls-1{fill:#66247f;}.cls-2{fill:#1e1e1c;}.cls-3{fill:#6f3089;}</style>
  <path class="cls-1" d="M102.23,8.48a17.7,17.7,0,0,1-.24,1.78,6,6,0,0,1-.18.84,1.14,1.14,0,0,1-1.13.86c-.52,0-1.06,0-1.58,0H93c.23-1.49.46-2.92.7-4.39h7.68a.8.8,0,0,1,.81.88m.45-2.79a6.85,6.85,0,0,0-.79,0H92.54c-.57,0-.69.09-.78.64q-.48,3.06-1,6.1c0,.3-.1.61-.15.91s0,.56.31.65h10.37a1.81,1.81,0,0,0,.61-.14A2.62,2.62,0,0,0,103.84,12a32.8,32.8,0,0,0,.68-4.18,1.89,1.89,0,0,0-1.84-2.1"/>
  <path class="cls-1" d="M88.94,5.33a1.91,1.91,0,1,1,1.91-1.91h0a1.91,1.91,0,0,1-1.91,1.91m3.43-1.91a3.44,3.44,0,1,0-4.93,3.1C87.2,8,87,9.46,86.73,10.94c-.13.8-.26,1.59-.38,2.39,0,.23,0,.55.31.61h1.47c.26,0,.4-.33.43-.6s.1-.67.14-1c.3-1.85.59-3.7.89-5.55a3.43,3.43,0,0,0,2.78-3.37"/>
  <path class="cls-2" d="M60.94,9.25c.82,0,1.37-.29,1.37-1.1V7.78c0-.8-.53-1.1-1.37-1.1H54.07a.26.26,0,0,1-.29-.28V5.89a.26.26,0,0,1,.29-.29h7c1.52,0,2.45.54,2.45,2V8a1.73,1.73,0,0,1-1.18,1.83,1.73,1.73,0,0,1,1.28,1.85V12c0,1.5-.93,2-2.45,2H54.08a.26.26,0,0,1-.29-.29V13.2a.26.26,0,0,1,.29-.28h7c.84,0,1.37-.29,1.37-1.1v-.36c0-.8-.53-1.1-1.37-1.1H55a.26.26,0,0,1-.29-.24,0,0,0,0,1,0,0v-.5c0-.21.09-.32.29-.32Z"/>
  <path class="cls-2" d="M72,12.9c.84,0,1.36-.3,1.36-1.1v-.36c0-.81-.53-1.1-1.36-1.1H66V11.5a1.27,1.27,0,0,0,1.4,1.41ZM66,9.25h6.15c1.52,0,2.49.53,2.49,2V12c0,1.5-1,2-2.49,2h-5a2.14,2.14,0,0,1-2.36-2.35V8.37a2.51,2.51,0,0,1,2.77-2.8h6.43a.26.26,0,0,1,.28.29v.51a.26.26,0,0,1-.22.28H67.8A1.63,1.63,0,0,0,66,8.46Z"/>
  <path class="cls-2" d="M84.87,6.39a.27.27,0,0,1-.25.28H76.91V9.25h5.86c1.51,0,2.48.53,2.48,2V12c0,1.5-1,2-2.48,2H75.71a.26.26,0,0,1-.28-.29v-.51a.26.26,0,0,1,.22-.28h7c.85,0,1.37-.3,1.37-1.1v-.36c0-.82-.53-1.1-1.37-1.1H76a.25.25,0,0,1-.28-.22V5.88A.26.26,0,0,1,76,5.59h8.63a.26.26,0,0,1,.29.29Z"/>
  <path class="cls-3" d="M1.1,10.94.6,13.83H0L1.24,6.72H3.55a2.12,2.12,0,0,1,1.54.59,1.82,1.82,0,0,1,.46,1.49,2.18,2.18,0,0,1-.81,1.56,2.85,2.85,0,0,1-1.84.57Zm.09-.51H2.92A2.16,2.16,0,0,0,4.31,10,1.66,1.66,0,0,0,5,8.82a1.38,1.38,0,0,0-.31-1.14,1.48,1.48,0,0,0-1.1-.44H1.74Z"/>
  <path class="cls-3" d="M6,11.14a3.37,3.37,0,0,1,.47-1.4,2.6,2.6,0,0,1,.95-1,2.29,2.29,0,0,1,1.23-.32,1.86,1.86,0,0,1,1.11.36,2,2,0,0,1,.68.95,3.08,3.08,0,0,1,.14,1.34v.09a3.39,3.39,0,0,1-.88,2,2.33,2.33,0,0,1-1.78.73,1.79,1.79,0,0,1-1.42-.66,2.49,2.49,0,0,1-.52-1.68v-.28Zm.56.17a2.7,2.7,0,0,0,.09,1.07,1.65,1.65,0,0,0,.47.77,1.32,1.32,0,0,0,.82.29,1.63,1.63,0,0,0,1-.27,2,2,0,0,0,.72-.78A3.07,3.07,0,0,0,10,11.26l0-.16a2.41,2.41,0,0,0-.3-1.54A1.23,1.23,0,0,0,8.59,9a1.67,1.67,0,0,0-1.35.6,3,3,0,0,0-.7,1.67Z"/>
  <path class="cls-3" d="M12.75,12.62V13l.19-.45,1.93-4h.5l.52,4,0,.49.2-.5,1.75-4h.62l-2.41,5.28h-.5L15,9.64V9.35l-.12.3-2,4.18h-.5L11.8,8.55h.55Z"/>
  <path class="cls-3" d="M20.77,13.93a1.92,1.92,0,0,1-1.1-.35,2,2,0,0,1-.68-.94,2.87,2.87,0,0,1-.16-1.28l0-.17a3.47,3.47,0,0,1,.43-1.39,2.76,2.76,0,0,1,.93-1,2.07,2.07,0,0,1,1.2-.34,1.66,1.66,0,0,1,1,.32,1.76,1.76,0,0,1,.59.87,2.75,2.75,0,0,1,.12,1.23l0,.36H19.42v.12a2.28,2.28,0,0,0,.08,1,1.56,1.56,0,0,0,.49.78,1.33,1.33,0,0,0,.83.29,1.74,1.74,0,0,0,.85-.18,2.61,2.61,0,0,0,.69-.52l.34.28a2.45,2.45,0,0,1-.85.69A2.24,2.24,0,0,1,20.77,13.93Zm.61-5a1.51,1.51,0,0,0-1.14.45,3,3,0,0,0-.75,1.33h3.06l0-.08a1.64,1.64,0,0,0-.25-1.19A1.1,1.1,0,0,0,21.38,9Z"/>
  <path class="cls-3" d="M27,9a2.58,2.58,0,0,0-.39,0,1.67,1.67,0,0,0-1,.34,1.62,1.62,0,0,0-.62.86l-.62,3.63h-.58l.92-5.28h.57L25,9.39a2.16,2.16,0,0,1,.7-.71,1.56,1.56,0,0,1,.9-.24,1.35,1.35,0,0,1,.4.07Z"/>
  <path class="cls-3" d="M29,13.93a1.94,1.94,0,0,1-1.1-.35,2,2,0,0,1-.68-.94,3,3,0,0,1-.15-1.28v-.17a3.48,3.48,0,0,1,.44-1.39,2.61,2.61,0,0,1,.93-1,2.07,2.07,0,0,1,1.2-.34,1.68,1.68,0,0,1,1,.32,1.76,1.76,0,0,1,.59.87,3.08,3.08,0,0,1,.12,1.23l0,.36H27.7v.12a2.28,2.28,0,0,0,.07,1,1.58,1.58,0,0,0,.5.78,1.31,1.31,0,0,0,.83.29,1.67,1.67,0,0,0,.84-.18,2.61,2.61,0,0,0,.69-.52L31,13a2.45,2.45,0,0,1-.85.69A2.31,2.31,0,0,1,29,13.93Zm.62-5a1.51,1.51,0,0,0-1.14.45,3,3,0,0,0-.76,1.33h3.07v-.08a1.69,1.69,0,0,0-.24-1.19A1.1,1.1,0,0,0,29.66,9Z"/>
  <path class="cls-3" d="M32.24,11.18A4.43,4.43,0,0,1,32.7,9.7a2.37,2.37,0,0,1,.83-.95,1.93,1.93,0,0,1,1.11-.3,1.89,1.89,0,0,1,.86.22,1.55,1.55,0,0,1,.61.63l.54-3h.57l-1.3,7.5h-.54l.13-.7a2.06,2.06,0,0,1-1.71.8,1.42,1.42,0,0,1-1.16-.57,2.57,2.57,0,0,1-.43-1.5,3.71,3.71,0,0,1,0-.58Zm.59.09a4,4,0,0,0,0,.7,1.75,1.75,0,0,0,.31,1,1,1,0,0,0,.83.4,1.61,1.61,0,0,0,1-.25,2.31,2.31,0,0,0,.69-.7L36,10a1.51,1.51,0,0,0-.47-.75A1.32,1.32,0,0,0,34.71,9a1.47,1.47,0,0,0-1.24.57,3.11,3.11,0,0,0-.63,1.64Z"/>
  <path class="cls-3" d="M44.44,11.21a3.83,3.83,0,0,1-.8,2,1.89,1.89,0,0,1-1.56.71,1.85,1.85,0,0,1-.92-.23,1.48,1.48,0,0,1-.6-.59l-.16.72h-.55l1.3-7.5h.58l-.55,3a2,2,0,0,1,1.71-.87A1.43,1.43,0,0,1,44.06,9a2.52,2.52,0,0,1,.42,1.5,2.94,2.94,0,0,1,0,.6Zm-.57-.11,0-.46a2.16,2.16,0,0,0-.28-1.23A1,1,0,0,0,42.75,9,1.81,1.81,0,0,0,41.08,10l-.4,2.39a1.4,1.4,0,0,0,.48.73,1.45,1.45,0,0,0,.84.27,1.49,1.49,0,0,0,1.22-.57A3.38,3.38,0,0,0,43.87,11.1Z"/>
  <path class="cls-3" d="M47,13l2.26-4.42h.65l-3.22,6.13a2.87,2.87,0,0,1-.75,1A1.4,1.4,0,0,1,45,16a2.7,2.7,0,0,1-.47-.08l.06-.48.29,0a1.39,1.39,0,0,0,1.3-1l.37-.74-1-5.2h.61Z"/>
</svg>